<?xml version="1.0" standalone="no"?>
<!DOCTYPE svg PUBLIC "-//W3C//DTD SVG 20010904//EN"
 "http://www.w3.org/TR/2001/REC-SVG-20010904/DTD/svg10.dtd">
<svg version="1.0" xmlns="http://www.w3.org/2000/svg"
 width="200.000000pt" height="200.000000pt" viewBox="0 0 200.000000 200.000000"
 preserveAspectRatio="xMidYMid meet">
<metadata>
Created by potrace 1.11, written by Peter Selinger 2001-2013
</metadata>
<g transform="translate(0.000000,200.000000) scale(0.100000,-0.100000)"
fill="#000000" stroke="none">
<path d="M621 1695 c-141 -40 -224 -141 -224 -272 0 -125 56 -197 242 -311
226 -139 286 -217 279 -357 -6 -132 -70 -190 -208 -190 -62 0 -84 5 -126 27
-84 44 -140 118 -178 236 -28 84 -40 66 -32 -50 9 -122 20 -178 38 -189 88
-57 304 -78 411 -40 141 49 218 150 216 285 0 39 -5 86 -12 104 -28 78 -109
149 -289 254 -171 100 -228 172 -228 287 0 96 39 159 117 187 50 17 88 17 151
-1 88 -26 150 -96 176 -197 7 -29 19 -54 26 -56 11 -4 12 18 7 114 -6 96 -11
121 -24 132 -58 42 -249 63 -342 37z"/>
<path d="M1210 1675 c0 -8 21 -14 56 -17 96 -8 89 42 89 -616 0 -609 -1 -622
-47 -715 -10 -21 -37 -56 -60 -78 -22 -22 -38 -43 -34 -46 12 -13 119 50 163
95 48 49 79 122 93 220 5 37 10 293 10 569 0 346 3 510 11 526 14 31 48 47 99
47 27 0 40 4 40 14 0 11 -40 13 -210 13 -160 0 -210 -3 -210 -12z"/>
</g>
</svg>
